<?xml version="1.0" encoding="UTF-8"?> <svg xmlns="http://www.w3.org/2000/svg" viewBox="0 0 2024.85 76.89" data-guides="{&quot;vertical&quot;:[],&quot;horizontal&quot;:[]}"><defs></defs><path fill="transparent" stroke="#3f1b62" fill-opacity="1" stroke-width="2.9" stroke-opacity="1" id="tSvg1611ce080d7" title="Path 6" d="M2.8998 2.8997L136.9551 58.2372C159.3981 67.5016 184.4451 68.2843 207.4227 60.4391L338.6487 15.6353C362.6189 7.4513 388.8016 8.6682 411.9094 19.0402L514.7971 65.222C540.5967 76.8023 570.0933 76.9175 595.9826 65.539L695.1604 21.95C722.5971 9.8914 753.9956 10.7741 780.7115 24.3549L855.0386 62.1386C881.5481 75.6145 912.6801 76.5927 939.9834 64.8076L1041.2306 21.1057C1068.0049 9.549 1098.49 10.2555 1124.7002 23.0401L1206.498 62.9389C1233.0991 75.9142 1264.0815 76.4394 1291.1071 64.373L1384.7454 22.5653C1412.5751 10.1399 1444.5521 11.0841 1471.6002 25.13L1537.1656 59.1775C1566.3798 74.3482 1601.1889 74.1695 1630.2458 58.6997L1688.4781 27.6971C1717.625 12.1794 1752.5532 12.0505 1781.8139 27.3525L1839.0705 57.2952C1870.0707 73.507 1907.2889 72.3402 1937.2128 54.2185L2021.9541 2.8997"></path></svg> 